<?xml version="1.0" encoding="UTF-8" standalone="no"?>
<!-- Created with Inkscape (http://www.inkscape.org/) -->

<svg
   xmlns:dc="http://purl.org/dc/elements/1.1/"
   xmlns:cc="http://creativecommons.org/ns#"
   xmlns:rdf="http://www.w3.org/1999/02/22-rdf-syntax-ns#"
   xmlns:svg="http://www.w3.org/2000/svg"
   xmlns="http://www.w3.org/2000/svg"
   xmlns:sodipodi="http://sodipodi.sourceforge.net/DTD/sodipodi-0.dtd"
   xmlns:inkscape="http://www.inkscape.org/namespaces/inkscape"
   width="210mm"
   height="297mm"
   viewBox="0 0 210 297"
   version="1.1"
   id="svg4621"
   inkscape:version="0.92.0 r15299"
   sodipodi:docname="bossmetor00.svg">
  <defs
     id="defs4615" />
  <sodipodi:namedview
     id="base"
     pagecolor="#ffffff"
     bordercolor="#666666"
     borderopacity="1.0"
     inkscape:pageopacity="0.0"
     inkscape:pageshadow="2"
     inkscape:zoom="1.4"
     inkscape:cx="65.005979"
     inkscape:cy="809.41898"
     inkscape:document-units="mm"
     inkscape:current-layer="layer1"
     showgrid="false"
     inkscape:window-width="1854"
     inkscape:window-height="1057"
     inkscape:window-x="58"
     inkscape:window-y="-8"
     inkscape:window-maximized="1" />
  <metadata
     id="metadata4618">
    <rdf:RDF>
      <cc:Work
         rdf:about="">
        <dc:format>image/svg+xml</dc:format>
        <dc:type
           rdf:resource="http://purl.org/dc/dcmitype/StillImage" />
        <dc:title></dc:title>
      </cc:Work>
    </rdf:RDF>
  </metadata>
  <g
     inkscape:label="Layer 1"
     inkscape:groupmode="layer"
     id="layer1">
    <path
       sodipodi:type="star"
       style="fill:none;fill-opacity:1;stroke:#ab29e5;stroke-width:1.36500001;stroke-linecap:round;stroke-linejoin:round;stroke-miterlimit:4;stroke-dasharray:none;stroke-opacity:1"
       id="path4623"
       sodipodi:sides="12"
       sodipodi:cx="59.720242"
       sodipodi:cy="53.394344"
       sodipodi:r1="11.008455"
       sodipodi:r2="10.344564"
       sodipodi:arg1="0.60228735"
       sodipodi:arg2="0.86408674"
       inkscape:flatsided="true"
       inkscape:rounded="0.116821"
       inkscape:randomized="0.117"
       d="m 69.493619,60.062662 c -0.448709,0.510062 -3.86181,3.769681 -4.490654,4.048947 -0.628844,0.279267 -4.901123,-1.017723 -5.549304,-0.953548 -0.648181,0.06418 -5.652402,0.3968 -6.183013,-0.01913 -0.530611,-0.415931 -1.907444,-3.551383 -2.227244,-4.140987 -0.3198,-0.589603 -1.666078,-6.741785 -1.732127,-7.406092 -0.06605,-0.664308 0.656193,-4.882789 1.133067,-5.364848 0.476875,-0.482059 4.000315,-2.67608 4.629524,-2.859971 0.629209,-0.183891 5.217071,-2.192149 5.893871,-2.208431 0.676799,-0.01628 5.178262,3.536185 5.699494,3.997663 0.521231,0.461477 1.955977,1.767483 2.323777,2.339864 0.367799,0.572381 1.640902,5.016057 1.593174,5.646667 -0.04773,0.630609 -0.641855,6.409805 -1.090565,6.919867 z"
       inkscape:transform-center-x="1.2769719"
       inkscape:transform-center-y="-1.0035879" />
  </g>
</svg>
