<?xml version="1.0" encoding="UTF-8" standalone="no"?>
<!-- Created with Inkscape (http://www.inkscape.org/) -->

<svg
   xmlns:dc="http://purl.org/dc/elements/1.1/"
   xmlns:cc="http://creativecommons.org/ns#"
   xmlns:rdf="http://www.w3.org/1999/02/22-rdf-syntax-ns#"
   xmlns:svg="http://www.w3.org/2000/svg"
   xmlns="http://www.w3.org/2000/svg"
   xmlns:sodipodi="http://sodipodi.sourceforge.net/DTD/sodipodi-0.dtd"
   xmlns:inkscape="http://www.inkscape.org/namespaces/inkscape"
   width="210mm"
   height="297mm"
   viewBox="0 0 210 297"
   version="1.1"
   id="svg4621"
   inkscape:version="0.92.0 r15299"
   sodipodi:docname="metor04.svg">
  <defs
     id="defs4615" />
  <sodipodi:namedview
     id="base"
     pagecolor="#ffffff"
     bordercolor="#666666"
     borderopacity="1.0"
     inkscape:pageopacity="0.0"
     inkscape:pageshadow="2"
     inkscape:zoom="1.4"
     inkscape:cx="183.93455"
     inkscape:cy="809.41898"
     inkscape:document-units="mm"
     inkscape:current-layer="layer1"
     showgrid="false"
     inkscape:window-width="1854"
     inkscape:window-height="1057"
     inkscape:window-x="58"
     inkscape:window-y="-8"
     inkscape:window-maximized="1" />
  <metadata
     id="metadata4618">
    <rdf:RDF>
      <cc:Work
         rdf:about="">
        <dc:format>image/svg+xml</dc:format>
        <dc:type
           rdf:resource="http://purl.org/dc/dcmitype/StillImage" />
        <dc:title></dc:title>
      </cc:Work>
    </rdf:RDF>
  </metadata>
  <g
     inkscape:label="Layer 1"
     inkscape:groupmode="layer"
     id="layer1">
    <path
       sodipodi:type="star"
       style="fill:none;fill-opacity:1;stroke:#cf2929;stroke-width:1.36500001;stroke-linecap:round;stroke-linejoin:round;stroke-miterlimit:4;stroke-dasharray:none;stroke-opacity:1"
       id="path4623"
       sodipodi:sides="15"
       sodipodi:cx="59.720242"
       sodipodi:cy="53.394344"
       sodipodi:r1="11.008455"
       sodipodi:r2="10.344564"
       sodipodi:arg1="0.60228735"
       sodipodi:arg2="0.81172686"
       inkscape:flatsided="true"
       inkscape:rounded="0.897"
       inkscape:randomized="-0.037"
       d="m 68.569686,59.494428 c -2.182792,3.446363 0.142358,1.469365 -3.437919,3.393768 -3.580277,1.924402 0.443542,1.254398 -3.577239,1.640336 -4.020781,0.385938 -0.866709,0.696946 -4.742531,-0.499975 -3.875823,-1.19692 -0.861032,0.06635 -3.943663,-2.667924 -3.08263,-2.734279 -1.781521,0.223671 -3.483309,-3.502309 -1.701787,-3.725981 -0.9839,0.112488 -1.029682,-3.931877 -0.04578,-4.044365 0.166236,-1.109688 1.530256,-4.941418 1.364019,-3.831729 -0.428268,-0.86328 2.40102,-3.77237 2.829287,-2.90909 0.06538,-1.050704 3.872441,-2.443016 3.807063,-1.392313 0.246856,-0.403926 4.305676,0.0492 4.05882,0.453125 1.062086,-1.266591 4.632222,0.899405 3.570136,2.165995 1.0795,-0.01836 3.524204,3.27097 2.444703,3.289329 0.478174,-0.280948 1.470407,3.745558 0.992232,4.026506 0.821611,0.912922 0.07121,5.020741 -0.750403,4.107819 0.589702,0.292549 -1.593091,3.738912 z"
       inkscape:transform-center-x="1.2769719"
       inkscape:transform-center-y="-1.0035879" />
  </g>
</svg>
